<svg width="572" height="474" viewBox="0 0 572 474" fill="none" xmlns="http://www.w3.org/2000/svg">
<rect width="572" height="474" fill="rgba(255,255,255,0)"/>
<path d="M100.318 182.518L283.824 121.068C285.894 120.375 288.134 120.378 290.202 121.077L471.977 182.527C481.04 185.591 481.04 198.409 471.977 201.473L290.202 262.923C288.134 263.622 285.894 263.625 283.824 262.932L100.318 201.482C91.218 198.435 91.218 185.565 100.318 182.518Z" fill="black" stroke="black"/>
<path d="M175 323.731L183 256L260 278.84C283.664 283.263 296.015 282.856 317 278.84L393 256L398 323.731C309.525 352.359 266.141 351.819 175 323.731Z" fill="black" stroke="black"/>
<path d="M127.705 241.968C129.032 218.864 150.067 198.038 162.326 200.148L172.712 209.109C154.416 219.714 148.876 226.882 147.9 241.968V271.093L172.712 342.039C177.299 353.449 175.083 355.91 165.211 354.734H117.318C110.475 355.219 108.146 353.889 111.548 342.039L127.705 271.093V241.968Z" fill="black"/>
<path d="M158 257.5C158 268.27 148.598 277 137 277C125.402 277 116 268.27 116 257.5C116 246.73 125.402 238 137 238C148.598 238 158 246.73 158 257.5Z" fill="black"/>
</svg>
